<svg width="28" height="49" viewBox="0 0 28 49" fill="none" xmlns="http://www.w3.org/2000/svg">
<path d="M8.98566 16.3635V34.5736C9.00653 35.9052 9.5462 37.1751 10.4882 38.1094C11.4302 39.0436 12.699 39.5672 14.0207 39.5672C15.3425 39.5672 16.6113 39.0436 17.5533 38.1094C18.4953 37.1751 19.0349 35.9052 19.0558 34.5736L19.0721 10.7049C19.0858 9.56678 18.8752 8.43721 18.4524 7.38171C18.0296 6.32621 17.4031 5.36577 16.6091 4.55605C15.8152 3.74634 14.8696 3.10347 13.8272 2.6647C12.7848 2.22593 11.6664 2 10.5367 2C9.40701 2 8.28856 2.22593 7.24618 2.6647C6.2038 3.10347 5.25823 3.74634 4.46428 4.55605C3.67033 5.36577 3.0438 6.32621 2.621 7.38171C2.1982 8.43721 1.98755 9.56678 2.00126 10.7049V34.7344C1.97824 36.3367 2.27159 37.9276 2.86426 39.4147C3.45692 40.9018 4.33708 42.2553 5.45355 43.3966C6.57001 44.5379 7.90053 45.4442 9.36772 46.0628C10.8349 46.6814 12.4095 47 14 47C15.5905 47 17.1651 46.6814 18.6323 46.0628C20.0995 45.4442 21.43 44.5379 22.5465 43.3966C23.6629 42.2553 24.5431 40.9018 25.1357 39.4147C25.7284 37.9276 26.0218 36.3367 25.9987 34.7344V12.2797" stroke="#EAEAEA" stroke-width="4" stroke-miterlimit="10" stroke-linecap="round"/>
</svg>
