<svg width="40" height="40" viewBox="0 0 40 40" fill="none" xmlns="http://www.w3.org/2000/svg">
<path d="M2 20H5.6M20 5.6V2V5.6ZM20 38V34.4V38ZM20 7.04C17.4368 7.04 14.9311 7.80009 12.7998 9.22415C10.6685 10.6482 9.00743 12.6723 8.02652 15.0404C7.04561 17.4086 6.78896 20.0144 7.28902 22.5284C7.78909 25.0424 9.02341 27.3516 10.8359 29.1641C12.6484 30.9766 14.9576 32.2109 17.4716 32.711C19.9856 33.211 22.5914 32.9544 24.9596 31.9735C27.3277 30.9926 29.3518 29.3315 30.7758 27.2002C32.1999 25.0689 32.96 22.5632 32.96 20C32.96 16.5628 31.5946 13.2664 29.1641 10.8359C26.7336 8.40542 23.4372 7.04 20 7.04ZM34.4 20H38H34.4Z" stroke="#EAEAEA" stroke-width="4" stroke-linecap="round" stroke-linejoin="round"/>
</svg>
